PathFileType	4	(X/Y/Z)	/Users/itak/Documents/Research/Walk-IL/dataset/trc/00007_00004.trc
DataRate	CameraRate	NumFrames	NumMarkers	Units	OrigDataRate	OrigDataStartFrame	OrigNumFrames
100.000000	100.000000	4	53	mm	100.000000	435	580
Frame#	Time	RPSI			LPSI			L3			STRN			T10			C7			CLAV			RBAK			LBAK			LSHO			LUPA			LAEL			LAOL			LWTS			LWPS			LFRA			LIFD			LHPS			LHTS			RSHO			RUPA			RAEL			RAOL			RWTS			RWPS			RFRA			RIFD			RHTS			RHPS			RBHD			LFHD			RFHD			LBHD			LHIP			RHIP			RASI			LASI			LKNE			LTHI			LANK			LTIP			LTOE			LMT1			LMT5			LHEE			RKNE			RTHI			RANK			RTIP			RTOE			RMT1			RMT5			RHEE			
		X1	Y1	Z1	X2	Y2	Z2	X3	Y3	Z3	X4	Y4	Z4	X5	Y5	Z5	X6	Y6	Z6	X7	Y7	Z7	X8	Y8	Z8	X9	Y9	Z9	X10	Y10	Z10	X11	Y11	Z11	X12	Y12	Z12	X13	Y13	Z13	X14	Y14	Z14	X15	Y15	Z15	X16	Y16	Z16	X17	Y17	Z17	X18	Y18	Z18	X19	Y19	Z19	X20	Y20	Z20	X21	Y21	Z21	X22	Y22	Z22	X23	Y23	Z23	X24	Y24	Z24	X25	Y25	Z25	X26	Y26	Z26	X27	Y27	Z27	X28	Y28	Z28	X29	Y29	Z29	X30	Y30	Z30	X31	Y31	Z31	X32	Y32	Z32	X33	Y33	Z33	X34	Y34	Z34	X35	Y35	Z35	X36	Y36	Z36	X37	Y37	Z37	X38	Y38	Z38	X39	Y39	Z39	X40	Y40	Z40	X41	Y41	Z41	X42	Y42	Z42	X43	Y43	Z43	X44	Y44	Z44	X45	Y45	Z45	X46	Y46	Z46	X47	Y47	Z47	X48	Y48	Z48	X49	Y49	Z49	X50	Y50	Z50	X51	Y51	Z51	X52	Y52	Z52	X53	Y53	Z53	

436	4.350000000000001	896.0634765625	1029.905395507812	-188.6675262451172	857.6277465820312	1025.846801757812	-347.6426391601562	867.2118530273438	1095.412719726562	-279.1061096191406	1080.298706054688	1293.776977539062	-315.4459838867188	833.0650634765625	1237.422729492188	-286.5203857421875	871.6675415039062	1505.867431640625	-313.090576171875	1032.500854492188	1417.542602539062	-318.9838562011719	830.7076416015625	1370.359375	-223.7498168945312	846.5348510742188	1461.609252929688	-407.9346008300781	943.6234130859375	1466.90869140625	-489.8125915527344	906.8473510742188	1341.425048828125	-562.7820434570312	901.5289306640625	1125.10791015625	-587.6090087890625	854.8744506835938	1111.418212890625	-493.5413513183594	1015.492065429688	885.0880737304688	-541.0753784179688	934.401123046875	860.0286254882812	-572.2303466796875	920.7489013671875	1010.218811035156	-594.0191650390625	1060.012573242188	703.4498291015625	-520.5308837890625	975.5408935546875	774.0078735351562	-573.6629028320312	1042.299194335938	791.4619750976562	-554.8446044921875	965.4085083007812	1498.118896484375	-145.5003509521484	959.281494140625	1428.917114257812	-70.28282928466797	920.6642456054688	1164.576416015625	-31.6313419342041	912.4348754882812	1131.1328125	-125.3689193725586	1048.586669921875	903.9678955078125	-57.47228240966797	988.9213256835938	893.0974731445312	11.25838375091553	935.411376953125	1089.630493164062	-12.73811531066895	1063.24755859375	718.350830078125	-66.80740356445312	1081.960693359375	794.3674926757812	-40.7359619140625	1029.50146484375	792.4489135742188	12.45355987548828	927.1517944335938	1691.422729492188	-381.0087585449219	1108.433349609375	1697.667358398438	-259.0619506835938	1108.255981445312	1700.86865234375	-357.645263671875	935.3319702148438	1682.424072265625	-237.3032531738281	927.7552490234375	933.8018798828125	-473.2106018066406	1041.587158203125	937.1153564453125	-115.2228240966797	1117.388427734375	973.0802001953125	-212.2397613525391	1057.242309570312	978.5189208984375	-440.0312194824219	938.2941284179688	484.7383117675781	-458.049560546875	922.7601318359375	631.7601318359375	-478.4965515136719	577.5148315429688	114.8151321411133	-433.1294860839844	740.7294921875	313.6761779785156	-462.9339294433594	757.478515625	29.08174705505371	-336.5128784179688	708.48388671875	60.35835647583008	-330.6096496582031	679.7952270507812	39.66778564453125	-431.1026000976562	524.16357421875	170.5648956298828	-390.9683532714844	1163.82177734375	524.1085205078125	-180.0739593505859	1101.13525390625	783.0164794921875	-125.3753890991211	1138.092041015625	28.90390777587891	-196.7206115722656	1168.65771484375	395.6648864746094	-180.3412780761719	1360.33544921875	28.83534240722656	-271.5428771972656	1294.098999023438	35.79086303710938	-290.7144775390625	1287.79638671875	27.09155082702637	-194.1350402832031	1077.2216796875	31.28236770629883	-234.1830902099609	
437	4.36	904.5696411132812	1031.4248046875	-187.1856231689453	865.6817626953125	1026.8896484375	-346.0145263671875	875.5397338867188	1096.584716796875	-277.4324035644531	1088.46533203125	1294.94287109375	-314.2218322753906	841.3306274414062	1238.484985351562	-284.7911987304688	879.7037353515625	1506.94482421875	-311.3587951660156	1040.631225585938	1418.706665039062	-317.5608215332031	838.9805908203125	1371.369018554688	-222.0601043701172	854.4789428710938	1462.835083007812	-406.2230224609375	951.4664306640625	1468.226440429688	-488.1792602539062	914.5767822265625	1342.799072265625	-561.1310424804688	908.8571166992188	1126.472778320312	-585.7888793945312	862.4923706054688	1112.934448242188	-491.5966796875	1022.519653320312	886.587158203125	-539.7730712890625	941.0341796875	861.3111572265625	-570.400146484375	927.7645874023438	1011.532043457031	-592.2100219726562	1066.313720703125	704.3731689453125	-518.89892578125	981.9387817382812	775.1231689453125	-571.8748779296875	1048.785400390625	792.522705078125	-553.3175048828125	973.7365112304688	1499.182495117188	-143.94091796875	967.7266845703125	1430.020263671875	-68.70463562011719	929.385009765625	1165.695190429688	-29.8451042175293	921.0240478515625	1132.1767578125	-123.5442886352539	1056.970703125	904.9218139648438	-55.52641677856445	997.4027099609375	894.2554931640625	13.2947359085083	944.1146850585938	1090.797241210938	-10.90989780426025	1071.295166015625	719.2548828125	-64.59706878662109	1090.177856445312	795.2572631835938	-38.6838264465332	1037.736450195312	793.5134887695312	14.55484676361084	934.9932250976562	1692.649658203125	-379.1626892089844	1116.497924804688	1698.783447265625	-257.5469360351562	1116.1123046875	1702.048950195312	-356.1178588867188	943.4452514648438	1683.539306640625	-235.4984741210938	935.455322265625	934.3111572265625	-471.7232971191406	1049.89404296875	938.210693359375	-114.0200729370117	1125.675537109375	973.9393310546875	-211.1597137451172	1064.90869140625	979.5236206054688	-438.7847290039062	952.0223388671875	484.3078002929688	-458.3441162109375	934.0656127929688	631.6994018554688	-478.2878112792969	583.1787109375	121.9545822143555	-433.8375244140625	751.7342529296875	316.1703491210938	-463.4365844726562	760.04443359375	28.88390159606934	-337.4469909667969	712.39208984375	63.00846099853516	-331.1571044921875	682.6609497070312	43.28776168823242	-431.3655395507812	531.456787109375	179.2421722412109	-392.023193359375	1168.57470703125	523.9572143554688	-179.2833862304688	1108.361450195312	783.54052734375	-124.3377380371094	1138.112426757812	28.99562644958496	-196.8048248291016	1172.177612304688	395.4359741210938	-179.6238708496094	1360.447998046875	28.37092399597168	-271.7415771484375	1294.213134765625	35.50705337524414	-290.7037353515625	1287.885131835938	26.96059989929199	-194.1625518798828	1077.192749023438	31.33006286621094	-234.2106323242188	
438	4.37	912.8540649414062	1032.926635742188	-185.7404022216797	873.44677734375	1027.918579101562	-344.435546875	883.6876220703125	1097.771240234375	-275.7908935546875	1096.480346679688	1296.044921875	-313.0625610351562	849.4700317382812	1239.586059570312	-283.0863037109375	887.67138671875	1508.03955078125	-309.6593627929688	1048.657470703125	1419.832275390625	-316.1975708007812	847.1341552734375	1372.414916992188	-220.3891143798828	862.3264770507812	1464.078369140625	-404.5460815429688	959.21142578125	1469.505981445312	-486.5973510742188	922.1620483398438	1344.13916015625	-559.5322265625	916.0457153320312	1127.793579101562	-584.059814453125	869.9016723632812	1114.400146484375	-489.7861022949219	1029.468383789062	888.094970703125	-538.4069213867188	947.6726684570312	862.5729370117188	-568.6304321289062	934.6917724609375	1012.810729980469	-590.4685668945312	1072.689575195312	705.392822265625	-517.1239624023438	988.4144897460938	776.2487182617188	-570.0804443359375	1055.3359375	793.7208251953125	-551.73486328125	982.0234375	1500.223999023438	-142.4275360107422	976.1227416992188	1431.104370117188	-67.16404724121094	937.9696044921875	1166.807373046875	-28.02803421020508	929.4510498046875	1133.19970703125	-121.6755981445312	1065.357421875	905.9586791992188	-53.63168334960938	1005.936401367188	895.4263305664062	15.30219459533691	952.71142578125	1091.94189453125	-9.052842140197754	1079.66162109375	720.2830810546875	-62.3869743347168	1098.565063476562	796.2970581054688	-36.66338348388672	1046.117919921875	794.6448364257812	16.60593223571777	942.7388305664062	1693.844604492188	-377.3610534667969	1124.4453125	1699.92626953125	-256.0535278320312	1123.868286132812	1703.275146484375	-354.6147155761719	951.4498291015625	1684.601196289062	-233.7377624511719	942.873779296875	934.82080078125	-470.3368225097656	1057.937377929688	939.2255249023438	-112.9110717773438	1133.707153320312	974.7105102539062	-210.1642608642578	1072.295043945312	980.5178833007812	-437.6184692382812	965.8676147460938	483.9732971191406	-458.4872436523438	946.033935546875	631.5355834960938	-477.9686584472656	589.3495483398438	129.2297821044922	-434.4429016113281	763.0180053710938	318.7298583984375	-463.818603515625	763.2919921875	28.87158012390137	-338.8301696777344	717.0735473632812	65.8529052734375	-332.0396118164062	686.0909423828125	47.4238166809082	-431.9266967773438	539.2655029296875	187.8219146728516	-392.7880249023438	1172.950439453125	523.7559814453125	-178.4453582763672	1115.214111328125	783.98486328125	-123.3066101074219	1138.108276367188	29.04519653320312	-196.8526458740234	1175.3828125	395.1726684570312	-178.8454742431641	1360.507446289062	28.10487365722656	-271.8863220214844	1294.259765625	35.32710647583008	-290.6552124023438	1287.917724609375	26.86559677124023	-194.1536865234375	1077.145751953125	31.36694145202637	-234.2028045654297	
439	4.38	920.9022216796875	1034.398681640625	-184.3592834472656	880.9365844726562	1028.933227539062	-342.9524841308594	891.614013671875	1098.962646484375	-274.2191467285156	1104.328857421875	1297.074096679688	-311.9686889648438	857.4691162109375	1240.721435546875	-281.4225463867188	895.5630493164062	1509.145874023438	-307.99169921875	1056.56689453125	1420.909912109375	-314.8998413085938	855.167724609375	1373.491577148438	-218.7354583740234	870.0626220703125	1465.335083007812	-402.9015197753906	966.8348388671875	1470.743530273438	-485.0705261230469	929.5860595703125	1345.437744140625	-557.9823608398438	923.0953369140625	1129.06689453125	-582.4105834960938	877.1090087890625	1115.807495117188	-488.0924987792969	1036.319946289062	889.558837890625	-536.9635009765625	954.3099975585938	863.8074951171875	-566.9241943359375	941.5318603515625	1014.052185058594	-588.7902221679688	1079.116943359375	706.4764404296875	-515.2346801757812	994.9515380859375	777.3815307617188	-568.2928466796875	1061.943969726562	795.0311889648438	-550.110107421875	990.2648315429688	1501.24609375	-140.9688568115234	984.4749145507812	1432.170654296875	-65.66706848144531	946.4244384765625	1167.9150390625	-26.19395446777344	937.7212524414062	1134.205932617188	-119.7764587402344	1073.744873046875	907.0694580078125	-51.79602432250977	1014.505065917969	896.6048583984375	17.26561737060547	961.2062377929688	1093.068481445312	-7.180070877075195	1088.304565429688	721.42041015625	-60.20153427124023	1107.10009765625	797.4743041992188	-34.68709564208984	1054.640014648438	795.8394165039062	18.60248184204102	950.3902587890625	1694.998657226562	-375.6080932617188	1132.27490234375	1701.08349609375	-254.5849609375	1131.521484375	1704.528930664062	-353.1316833496094	959.3441772460938	1685.601318359375	-232.0199737548828	950.0513305664062	935.3356323242188	-469.082763671875	1065.684204101562	940.1661987304688	-111.8853530883789	1141.4677734375	975.40234375	-209.2308197021484	1079.437133789062	981.5026245117188	-436.5268249511719	979.7428588867188	483.7590637207031	-458.46826171875	958.5737915039062	631.3058471679688	-477.5038757324219	596.0807495117188	136.4609222412109	-434.9093627929688	774.5059814453125	321.3373107910156	-464.0505065917969	767.3748779296875	29.10867500305176	-340.7321166992188	722.63330078125	68.75844573974609	-333.3265686035156	690.2306518554688	51.94457626342773	-432.8427734375	547.618408203125	196.0786285400391	-393.1614685058594	1176.994384765625	523.5132446289062	-177.5780792236328	1121.702880859375	784.364501953125	-122.2710952758789	1138.092895507812	29.0642261505127	-196.8675689697266	1178.31884765625	394.8883056640625	-178.0364990234375	1360.535888671875	27.96517181396484	-271.989013671875	1294.264038085938	35.21909713745117	-290.575927734375	1287.91796875	26.79751586914062	-194.1171112060547	1077.092407226562	31.40506553649902	-234.1640625	
